PathFileType	4	(X/Y/Z)	/Users/mathieubourgeois/Desktop/Analyse/Traitement/Sujet_05/Data/Transformed_Sujet_05_velo_60.trc
DataRate	CameraRate	NumFrames	NumMarkers	Units	OrigDataRate	OrigDataStartFrame	OrigNumFrames
120.000000	120.000000	5	36	mm	120.000000	0	1925
Frame#	Time	RFHD			RANE			STRN			LANI			LKNE			T10			RHUM			RWRB			C7			LFWT			LTOE			RTOE			LWRA			LBWT			RBWT			RFWT			LKNI			RKNI			RKNE			LANE			RANI			LHEE			RHEE			LHUM			LRAD			RRAD			RWRA			LWRB			LFHD			LBHD			RBHD			RSHO			LSHO			CLAV			LCAR			RCAR			
		X1	Y1	Z1	X2	Y2	Z2	X3	Y3	Z3	X4	Y4	Z4	X5	Y5	Z5	X6	Y6	Z6	X7	Y7	Z7	X8	Y8	Z8	X9	Y9	Z9	X10	Y10	Z10	X11	Y11	Z11	X12	Y12	Z12	X13	Y13	Z13	X14	Y14	Z14	X15	Y15	Z15	X16	Y16	Z16	X17	Y17	Z17	X18	Y18	Z18	X19	Y19	Z19	X20	Y20	Z20	X21	Y21	Z21	X22	Y22	Z22	X23	Y23	Z23	X24	Y24	Z24	X25	Y25	Z25	X26	Y26	Z26	X27	Y27	Z27	X28	Y28	Z28	X29	Y29	Z29	X30	Y30	Z30	X31	Y31	Z31	X32	Y32	Z32	X33	Y33	Z33	X34	Y34	Z34	X35	Y35	Z35	X36	Y36	Z36	

1	0	145.8342895507812	1328.017578125	102.3424987792968	-203.9271392822266	262.4263000488281	190.0670928955078	-222.7506713867188	1155.738647460938	32.15397644042959	-276.9718017578125	582.4945678710938	-53.41508102416999	-59.1516418457031	880.7941284179688	-154.1318511962891	-335.1349487304688	1359.2119140625	49.56021499633776	21.96139335632322	1030.546142578125	201.993667602539	242.253921508789	890.3737182617188	248.6781158447265	-99.30742645263672	1415.334350585938	27.80203819274893	-365.3135375976562	1085.585693359375	-70.08255767822277	-194.9084930419922	427.5514831542969	-97.70745849609381	-23.63941192626955	171.1506652832031	157.0103759765625	272.7176818847656	932.4423828125	-146.9627838134766	-534.8914184570312	1106.231689453125	-4.047457218170299	-522.435791015625	1108.163330078125	132.8927001953124	-358.1764831542969	1064.381958007812	172.6024780273436	-51.09999084472656	854.6957397460938	-46.52260971069342	-181.1891021728516	624.4754638671875	98.5648117065429	-198.3000946044922	666.1728515625	204.7056732177734	-301.2103271484375	602.9942016601562	-132.8541259765626	-164.6567077636719	271.2524108886719	111.1548843383789	-366.1231689453125	598.2046508789062	-85.46873474121102	-258.0516052246094	239.8471221923828	141.5303497314453	15.49455451965334	1040.882934570312	-143.8978118896485	61.24182128906252	1070.55224609375	-190.4626159667969	63.56684494018552	1065.4794921875	250.5966339111328	274.5257568359375	933.0678100585938	196.0345153808593	238.2413330078125	884.0774536132812	-180.9183959960938	152.6033477783203	1321.936401367188	-44.75835800170904	41.28916549682618	1427.06787109375	-60.02452468872078	32.90438079833984	1456.996459960938	72.07764434814445	-30.88255500793459	1319.903686523438	169.3739776611327	-71.80464935302733	1326.919067382812	-123.8087615966798	-99.46096038818359	1273.629638671875	30.67715644836417	315.6946411132812	925.4952392578125	-224.2310333251953	320.4058837890624	927.4253540039062	285.3393859863281	
2	0.008333333333333333	146.1703643798828	1328.390991210938	101.4249572753906	-212.0475463867188	258.9303894042969	189.8468627929687	-222.4012298583984	1155.743041992188	31.77618789672842	-270.6374206542969	587.0292358398438	-53.01811599731452	-56.97491073608396	888.5510864257812	-153.9638061523438	-335.0347900390625	1359.240112304688	49.38099670410143	22.03158569335935	1030.6484375	201.7365112304687	242.1653900146484	890.5609130859375	248.743667602539	-99.25318145751953	1415.407958984375	27.30096817016592	-365.4834594726562	1085.594360351562	-69.8132781982423	-185.2125091552734	433.5850219726562	-97.80830383300787	-32.6392402648926	165.6786499023438	156.9937286376953	272.6771850585938	932.4736938476562	-147.1366271972657	-534.8519897460938	1106.492919921875	-4.243782043457164	-522.4832153320312	1108.2822265625	132.7068481445311	-358.2234802246094	1064.077514648438	172.5967864990233	-48.9954605102539	861.0340576171875	-46.52686691284185	-187.5665435791016	620.8053588867188	97.55977630615227	-203.9845123291016	662.8202514648438	203.7678527832031	-294.6824340820312	607.151611328125	-132.5879516601563	-172.5358276367188	267.4159240722656	111.0089645385742	-359.5045166015625	600.9373779296875	-85.41050720214852	-266.2376403808594	236.9445953369141	141.2392883300781	15.42759132385256	1040.838623046875	-144.1803894042969	61.14395523071291	1070.46044921875	-190.8011779785157	63.64790344238278	1065.588256835938	250.2845611572265	274.51953125	933.0662231445312	195.9114532470703	238.2103729248047	884.0458984375	-181.0460815429688	152.5719604492188	1322.072143554688	-45.67236328125006	41.20072174072266	1427.154541015625	-60.74909973144539	33.06823730468749	1457.154174804688	71.35268402099601	-30.67497062683108	1320.025024414062	168.9003906249999	-71.91519165039061	1326.897216796875	-124.4035797119142	-99.39042663574219	1273.69677734375	30.18809890747061	315.6741027832031	925.3662109375	-224.3828887939453	320.3949890136718	927.472900390625	285.2055969238281	
3	0.01666666666666667	146.1269989013672	1328.043090820312	100.9341888427734	-220.7542877197266	256.0924072265625	189.568862915039	-222.3009643554688	1155.666625976562	31.46198463439931	-266.2456359863281	591.4999389648438	-51.97320556640632	-55.16269683837888	896.1422729492188	-154.2996063232422	-334.9552001953125	1359.301513671875	49.15660476684558	22.10486793518064	1030.74462890625	201.4782104492187	242.1937713623047	890.8265991210938	248.7106475830078	-99.17232513427734	1415.474975585938	26.76352119445791	-365.7450561523438	1085.778198242188	-69.64936065673839	-175.1336364746094	439.2148742675781	-97.88195800781256	-41.85504531860354	160.7341003417969	156.9043884277344	272.6268005371094	932.4850463867188	-147.3155364990235	-534.8966674804688	1106.775756835938	-4.440542697906627	-522.63037109375	1108.492797851562	132.4944458007811	-358.3886413574219	1063.90234375	172.5390624999999	-46.72812271118163	868.609619140625	-48.06976318359381	-193.4483489990234	617.6520385742188	96.56085968017571	-209.2794647216797	659.9430541992188	202.8851470947265	-288.0689086914062	610.6463623046875	-132.2983551025391	-180.7257537841797	264.0776672363281	110.7809371948242	-353.2268981933594	602.6493530273438	-84.88510894775399	-274.680908203125	234.6210632324219	141.0444793701171	15.39280700683596	1040.798217773438	-144.4270324707032	60.66640853881838	1070.414672851562	-191.5656890869141	63.70468521118161	1065.7099609375	250.0283203124999	275.2146301269531	932.949462890625	195.8444519042968	238.2053527832032	884.00048828125	-181.2139892578125	152.5375823974609	1322.184448242188	-46.46439743041998	41.07651519775391	1427.229736328125	-61.4079895019532	33.16606521606445	1457.2978515625	70.71006774902335	-30.52841949462893	1320.127563476562	168.3393249511718	-71.93369293212889	1326.895141601562	-124.9208145141603	-99.31056976318359	1273.777587890625	29.71627998352042	315.6168518066406	925.3467407226562	-224.6025848388672	320.1101684570312	927.7919311523438	285.3094177246094	
4	0.025	146.5110168457031	1328.722045898438	99.93540191650384	-228.7032775878907	253.5971984863281	189.438247680664	-222.1494445800781	1155.6865234375	31.14520835876455	-256.5232849121094	594.204345703125	-52.59817504882819	-53.42078018188474	902.8112182617188	-154.0203399658204	-334.8864440917969	1359.365966796875	48.89496231079089	22.16234016418455	1030.852172851562	201.2222747802734	242.4950103759765	890.76220703125	248.1035919189453	-99.14987945556641	1415.508056640625	26.31092262268057	-366.1327209472656	1086.161987304688	-69.54489135742199	-164.9049682617188	444.4277648925781	-98.00212860107426	-51.30680465698244	156.2607116699219	156.7608947753906	272.5828247070312	932.4620361328125	-147.5050659179688	-535.0704345703125	1107.151245117188	-4.700443744659557	-522.8470458984375	1108.75439453125	132.2694702148436	-358.6963500976562	1063.8291015625	172.5029296874999	-45.20046234130859	876.371337890625	-44.34719085693366	-202.3009033203125	614.8302001953125	96.7826843261718	-214.0732574462891	657.54296875	201.9743347167968	-281.3782958984375	613.5306396484375	-132.0374450683594	-189.1027069091797	261.20263671875	110.5363006591796	-346.7052307128906	603.780517578125	-84.03561401367196	-283.3030090332031	232.8615570068359	140.8269348144531	15.37908649444582	1040.793823242188	-144.7274322509766	60.60547256469729	1070.332885742188	-191.9510345458985	63.72525405883786	1065.830932617188	249.7900848388671	275.237548828125	933.0377807617188	195.7412719726562	238.2056579589844	883.9576416015625	-181.369873046875	152.5158386230469	1322.309936523438	-47.18254852294928	41.02936935424805	1427.285888671875	-62.01572036743172	33.25473403930663	1457.385986328125	70.09544372558585	-30.51542472839358	1320.220581054688	167.8485107421874	-71.94555664062499	1326.925659179688	-125.4148864746095	-99.22698974609375	1273.845458984375	29.28255462646475	315.6431274414062	925.251220703125	-224.7436676025391	320.3552856445312	927.5553588867188	284.9581298828125	
5	0.03333333333333333	146.6633911132812	1328.80419921875	99.4310226440429	-237.1923217773438	251.7861938476562	189.1900177001953	-222.0292663574219	1155.694946289062	30.76737213134756	-246.9992828369141	596.2937622070312	-53.61660385131842	-52.21623229980467	909.2998046875	-153.6508026123047	-334.8296813964844	1359.443969726562	48.59085845947253	22.18875503540037	1030.955444335938	200.9826202392578	242.4754638671875	890.8173828125	247.9755706787109	-99.14610290527344	1415.550659179688	25.89107322692862	-366.6751098632812	1086.630126953125	-69.47634124755871	-154.4662322998047	449.2462768554688	-98.03163909912114	-60.93219375610354	152.2530517578125	156.5771026611328	272.5900268554688	932.429931640625	-147.6724548339844	-535.3294677734375	1107.529174804688	-4.934668540954723	-523.1428833007812	1109.101318359375	132.0081634521483	-359.0500183105469	1063.860473632812	172.4268493652343	-43.39745330810546	882.5377807617188	-44.76263046264655	-207.7147827148438	612.6654663085938	96.03311920166009	-218.3827056884766	655.65869140625	201.1299438476562	-274.7368774414062	615.7286987304688	-131.7537078857422	-197.5641021728516	258.8385009765625	110.2699432373046	-339.2040405273438	604.3024291992188	-84.11569976806649	-292.0164794921875	231.6967163085938	140.646499633789	15.37145042419435	1040.779052734375	-145.0014801025391	60.58765792846682	1070.27294921875	-192.2918853759766	63.77306365966794	1065.924560546875	249.4914093017578	275.2755737304688	933.095947265625	195.6111145019531	238.2029113769532	883.9016723632812	-181.4766082763672	152.4898529052734	1322.420532226562	-47.7897453308106	40.93114089965821	1427.324340820312	-62.498821258545	33.26403808593749	1457.522705078125	69.59150695800773	-30.48609924316408	1320.273803710938	167.4286804199218	-71.9534225463867	1326.900024414062	-125.8556365966798	-99.21337890625	1273.865112304688	28.89285850524893	315.6920166015625	925.1640625	-224.865463256836	320.3419494628906	927.5927124023438	284.8377685546875	
